<?xml version="1.0" encoding="UTF-8"?>
<!DOCTYPE svg PUBLIC "-//W3C//DTD SVG 1.1//EN" "http://www.w3.org/Graphics/SVG/1.1/DTD/svg11.dtd">
<svg xmlns="http://www.w3.org/2000/svg" version="1.1" width="316px" height="276px" style="shape-rendering:geometricPrecision; text-rendering:geometricPrecision; image-rendering:optimizeQuality; fill-rule:evenodd; clip-rule:evenodd" xmlns:xlink="http://www.w3.org/1999/xlink">
<g><path style="opacity:0.234" fill="#e7e9ee" d="M 303.5,91.5 C 304.848,96.4064 304.682,101.406 303,106.5C 287.905,133.029 272.572,159.363 257,185.5C 253.749,191.5 250.916,197.666 248.5,204C 255.142,219.115 262.975,233.615 272,247.5C 273.955,250.719 275.288,254.053 276,257.5C 261.906,258.163 247.74,258.496 233.5,258.5C 217.79,258.627 202.124,258.127 186.5,257C 179.945,253.445 175.112,248.279 172,241.5C 166.333,231.167 160.667,220.833 155,210.5C 154.161,205.079 154.494,199.746 156,194.5C 170.558,169.727 184.892,144.727 199,119.5C 201.055,106.867 195.555,100.033 182.5,99C 156.317,98.8817 130.15,99.0484 104,99.5C 93.3289,98.497 85.6622,93.1637 81,83.5C 69.5861,63.0036 57.9195,42.6703 46,22.5C 44.872,20.6547 44.372,18.6547 44.5,16.5C 115.167,16.3333 185.834,16.5 256.5,17C 261.91,18.7425 265.744,22.2425 268,27.5C 278.747,46.6636 289.747,65.6636 301,84.5C 302.411,86.6504 303.245,88.9837 303.5,91.5 Z"/></g>
<g><path style="opacity:0.878" fill="#475473" d="M 254.5,18.5 C 184.998,18.1675 115.665,18.5008 46.5,19.5C 45.9569,19.44 45.6236,19.1067 45.5,18.5C 115.332,17.1682 184.999,17.1682 254.5,18.5 Z"/></g>
<g><path style="opacity:1" fill="#001b48" d="M 254.5,18.5 C 257.841,18.6559 260.674,19.9892 263,22.5C 276.036,45.9242 289.536,68.9242 303.5,91.5C 304.014,98.7953 302.18,105.462 298,111.5C 281.333,140.167 264.667,168.833 248,197.5C 247.333,201.5 247.333,205.5 248,209.5C 256.444,224.06 264.611,238.726 272.5,253.5C 259.017,254.833 245.183,255.499 231,255.5C 215.81,255.468 200.643,255.134 185.5,254.5C 182.584,252.726 180.084,250.393 178,247.5C 170.747,235.329 163.747,222.996 157,210.5C 156.104,205.051 156.437,199.718 158,194.5C 172.586,169.663 186.919,144.663 201,119.5C 203.106,109.943 199.939,102.943 191.5,98.5C 190.737,97.7321 189.737,97.2321 188.5,97C 158.168,96.5 127.835,96.3334 97.5,96.5C 93.682,94.8856 90.182,92.5522 87,89.5C 73.2357,66.3028 59.7357,42.9694 46.5,19.5C 115.665,18.5008 184.998,18.1675 254.5,18.5 Z"/></g>
<g><path style="opacity:0.761" fill="#6d7b91" d="M 97.5,96.5 C 127.835,96.3334 158.168,96.5 188.5,97C 189.737,97.2321 190.737,97.7321 191.5,98.5C 160.02,97.8628 128.687,97.1962 97.5,96.5 Z"/></g>
<g><path style="opacity:0.033" fill="#fdecec" d="M 75.5,121.5 C 100.819,122.266 126.152,122.766 151.5,123C 160.063,127.005 162.563,133.505 159,142.5C 137.168,181.298 115.001,219.798 92.5,258C 64.7714,258.974 37.1048,258.641 9.5,257C 7.18532,255.891 5.68532,254.057 5,251.5C 4.33333,248.5 4.33333,245.5 5,242.5C 28.0069,201.811 51.5069,161.478 75.5,121.5 Z"/></g>
<g><path style="opacity:1" fill="#d1383a" d="M 32.5,198.5 C 32.0463,205.421 29.0463,210.755 23.5,214.5C 25.9969,208.835 28.9969,203.502 32.5,198.5 Z"/></g>
<g><path style="opacity:1" fill="#d1373d" d="M 46.5,174.5 C 46.6602,176.199 46.4935,177.866 46,179.5C 43.7261,181.713 42.2261,184.379 41.5,187.5C 39.0345,190.128 37.2012,193.128 36,196.5C 35.3292,197.252 34.4959,197.586 33.5,197.5C 37.0773,189.339 41.4106,181.672 46.5,174.5 Z"/></g>
<g><path style="opacity:1" fill="#d33236" d="M 74.5,126.5 C 75.5878,131.249 73.9211,134.249 69.5,135.5C 69.5793,138.271 69.0793,140.937 68,143.5C 66.9887,144.337 65.8221,144.67 64.5,144.5C 65.1378,147.856 63.8044,149.856 60.5,150.5C 64.6653,142.164 69.332,134.164 74.5,126.5 Z"/></g>
<g><path style="opacity:1" fill="#d73839" d="M 146.5,159.5 C 146.791,155.795 147.791,152.295 149.5,149C 148.626,145.185 148.46,141.351 149,137.5C 151.167,142.88 152.501,142.547 153,136.5C 154.163,138.285 154.83,140.285 155,142.5C 158.231,137.805 158.231,133.138 155,128.5C 152.406,129.462 150.406,131.129 149,133.5C 148.104,130.975 148.604,128.808 150.5,127C 126.124,126.824 101.791,126.324 77.5,125.5C 76.5832,126.127 75.5832,126.461 74.5,126.5C 74.4142,125.504 74.7476,124.671 75.5,124C 100.167,123.333 124.833,123.333 149.5,124C 157.726,126.617 160.559,132.117 158,140.5C 154.141,146.897 150.308,153.23 146.5,159.5 Z"/></g>
<g><path style="opacity:1" fill="#d91f26" d="M 146.5,159.5 C 130.163,188.175 113.83,216.841 97.5,245.5C 94.186,247.82 91.5194,250.82 89.5,254.5C 88.6143,253.675 88.281,252.675 88.5,251.5C 87.1667,251.5 85.8333,251.5 84.5,251.5C 84.3396,248.116 84.673,244.783 85.5,241.5C 85.5472,240 84.8805,239 83.5,238.5C 82.5052,243.792 82.1718,249.125 82.5,254.5C 58.831,254.667 35.1643,254.5 11.5,254C 8.5743,250.835 7.24097,247.002 7.5,242.5C 11.8252,232.507 17.1585,223.174 23.5,214.5C 29.0463,210.755 32.0463,205.421 32.5,198.5C 32.5,197.833 32.8333,197.5 33.5,197.5C 34.4959,197.586 35.3292,197.252 36,196.5C 37.2012,193.128 39.0345,190.128 41.5,187.5C 42.2261,184.379 43.7261,181.713 46,179.5C 46.4935,177.866 46.6602,176.199 46.5,174.5C 50.6653,166.164 55.332,158.164 60.5,150.5C 63.8044,149.856 65.1378,147.856 64.5,144.5C 65.8221,144.67 66.9887,144.337 68,143.5C 69.0793,140.937 69.5793,138.271 69.5,135.5C 73.9211,134.249 75.5878,131.249 74.5,126.5C 75.5832,126.461 76.5832,126.127 77.5,125.5C 101.791,126.324 126.124,126.824 150.5,127C 148.604,128.808 148.104,130.975 149,133.5C 150.406,131.129 152.406,129.462 155,128.5C 158.231,133.138 158.231,137.805 155,142.5C 154.83,140.285 154.163,138.285 153,136.5C 152.501,142.547 151.167,142.88 149,137.5C 148.46,141.351 148.626,145.185 149.5,149C 147.791,152.295 146.791,155.795 146.5,159.5 Z"/></g>
<g><path style="opacity:1" fill="#d63939" d="M 97.5,245.5 C 95.5567,249.133 93.5567,252.799 91.5,256.5C 68.5072,257.666 45.5072,257.833 22.5,257C 18.0492,256.87 13.7159,256.204 9.5,255C 5.22014,251.198 4.55347,247.031 7.5,242.5C 7.24097,247.002 8.5743,250.835 11.5,254C 35.1643,254.5 58.831,254.667 82.5,254.5C 82.1718,249.125 82.5052,243.792 83.5,238.5C 84.8805,239 85.5472,240 85.5,241.5C 84.673,244.783 84.3396,248.116 84.5,251.5C 85.8333,251.5 87.1667,251.5 88.5,251.5C 88.281,252.675 88.6143,253.675 89.5,254.5C 91.5194,250.82 94.186,247.82 97.5,245.5 Z"/></g>
<g><path style="opacity:0.941" fill="#273957" d="M 272.5,253.5 C 273.478,253.811 274.145,254.478 274.5,255.5C 245.839,256.667 217.172,256.833 188.5,256C 187.263,255.768 186.263,255.268 185.5,254.5C 200.643,255.134 215.81,255.468 231,255.5C 245.183,255.499 259.017,254.833 272.5,253.5 Z"/></g>
</svg>
